<?xml version="1.0"?>
<svg version="1.1" xmlns="http://www.w3.org/2000/svg" width="155px" height="76px" style=""><path fill="#06b6d4" d="M7.44921875,44.2666015625q0-0.1796875,0.21337890625-0.32568359375t0.48291015625-0.21337890625t0.55029296875-0.08984375t0.41552734375-0.0224609375q1.0107421875,0,1.7294921875,0.8984375t1.24658203125,2.30224609375t0.8984375,3.099609375t0.70751953125,3.38037109375t0.66259765625,3.08837890625t0.72998046875,2.16748046875q0.6962890625-1.3701171875,1.26904296875-3.3017578125t1.0556640625-3.998046875t0.853515625-4.07666015625t0.59521484375-3.51513671875q0.08984375-0.404296875,0.5615234375-0.50537109375t0.7861328125-0.10107421875q0.5166015625,0,0.8984375,0.14599609375t0.3818359375,0.64013671875q0,0.8310546875-0.2021484375,2.25732421875t-0.55029296875,3.20068359375t-0.80859375,3.638671875t-0.98828125,3.53759765625t-1.1005859375,2.96484375t-1.13427734375,1.83056640625q-0.26953125,0.314453125-0.84228515625,0.43798828125t-0.95458984375,0.12353515625q-1.3251953125,0-2.201171875-0.6962890625l0,0.044921875q-1.3701171875-1.2802734375-2.021484375-3.1220703125t-0.943359375-3.8408203125t-0.52783203125-3.9755859375t-0.79736328125-3.59375q-0.08984375-0.1796875-0.224609375-0.52783203125t-0.314453125-0.6962890625t-0.30322265625-0.66259765625t-0.12353515625-0.494140625z M25.163486328125,52.0830078125q0-2.06640625,0.48291015625-4.05419921875t0.81982421875-3.96435546875q0.08984375-0.5166015625,0.70751953125-0.64013671875t1.04443359375-0.12353515625q0.7412109375,0,1.1904296875,0.224609375q0.1796875,0.08984375,0.3369140625,0.2021484375t0.1572265625,0.2919921875q0,1.931640625-0.46044921875,3.7734375t-0.46044921875,3.908203125q0,0.6962890625,0.10107421875,1.31396484375t0.19091796875,1.22412109375l0.134765625,0.6513671875q0,0.1796875,0.0224609375,0.314453125t0.0673828125,0.314453125q0,0.404296875-0.57275390625,0.55029296875t-0.99951171875,0.14599609375q-0.6513671875,0-1.20166015625-0.25830078125t-0.86474609375-0.88720703125l-0.314453125-0.6513671875q-0.26953125-0.5166015625-0.26953125-1.15673828125t-0.1123046875-1.17919921875z M26.600986328125,38.5615234375l0-0.4267578125q0-1.0556640625,0.52783203125-1.88671875t1.58349609375-0.8310546875q0.134765625,0,0.25830078125,0.0224609375t0.25830078125,0.0224609375q0.26953125,0.044921875,0.70751953125,0.21337890625t0.43798828125,0.52783203125l0,0.044921875q-0.08984375,0.1796875-0.1123046875,0.37060546875t-0.1123046875,0.32568359375l0.044921875-0.044921875q-0.26953125,0.6962890625-0.43798828125,1.123046875t-0.37060546875,0.68505859375t-0.50537109375,0.37060546875t-0.86474609375,0.1123046875q-0.08984375,0-0.314453125-0.0224609375t-0.48291015625-0.08984375t-0.43798828125-0.1796875t-0.1796875-0.3369140625z M34.97150390625,51.8359375q0-1.2353515625,0.23583984375-2.63916015625t0.80859375-2.57177734375t1.58349609375-1.931640625t2.5830078125-0.763671875q1.0556640625,0,2.0439453125,0.34814453125t1.8642578125,0.95458984375q0.26953125-0.44921875,0.853515625-0.55029296875t1.033203125-0.10107421875q0.1796875,0,0.50537109375,0.0224609375t0.64013671875,0.134765625t0.55029296875,0.26953125t0.28076171875,0.44921875q0.1796875,1.572265625,0.2470703125,3.13330078125t0.2021484375,3.11083984375q0.224609375,2.8974609375,0.6962890625,5.7275390625t0.4716796875,5.7275390625q0,1.3701171875-0.12353515625,2.96484375t-0.6513671875,2.95361328125t-1.53857421875,2.25732421875t-2.8076171875,0.8984375q-1.6171875,0-2.48193359375-0.57275390625t-1.56103515625-1.92041015625q0.044921875-0.44921875,0.57275390625-0.59521484375t0.90966796875-0.14599609375q0.359375,0,0.72998046875,0.0673828125t0.59521484375,0.224609375l0.5615234375,0.359375q0.8310546875-1.70703125,1.0107421875-3.728515625t0.1796875-3.908203125q0-1.572265625-0.1572265625-3.11083984375t-0.314453125-3.08837890625q-1.572265625,2.8525390625-4.7841796875,2.8525390625q-1.482421875,0-2.41455078125-0.62890625t-1.4375-1.5947265625t-0.6962890625-2.1787109375t-0.19091796875-2.42578125z M37.73419921875,52.0380859375q0,0.5615234375,0.044921875,1.44873046875t0.23583984375,1.74072265625t0.55029296875,1.47119140625t1.0107421875,0.61767578125q1.2353515625,0,1.9541015625-0.9658203125t1.13427734375-2.30224609375t0.66259765625-2.7626953125t0.62890625-2.34716796875q-0.044921875-0.314453125-0.044921875-0.61767578125l0-0.61767578125q-0.5166015625-0.9658203125-1.5048828125-1.67333984375t-2.0439453125-0.95458984375q-0.134765625-0.0224609375-0.2470703125-0.0224609375q-0.62890625,0-1.033203125,0.7412109375q-0.5166015625,0.8984375-0.80859375,2.14501953125t-0.41552734375,2.45947265625t-0.12353515625,1.6396484375z M54.168193359375,55.0703125l0-2.111328125q0-1.1455078125,0.05615234375-3.24560546875t0.14599609375-4.6044921875t0.2470703125-5.22216796875t0.359375-5.13232421875t0.48291015625-4.32373046875t0.64013671875-2.830078125q0.224609375-0.5166015625,0.7412109375-0.6513671875t1.0107421875-0.134765625q0.7861328125,0,1.38134765625,0.34814453125t0.59521484375,1.26904296875l-0.404296875,0.44921875q-0.7861328125,5.1884765625-1.0107421875,10.421875t-0.314453125,10.466796875q0.5615234375-0.8759765625,1.26904296875-1.71826171875t1.572265625-1.49365234375t1.8642578125-1.04443359375t2.18994140625-0.39306640625q1.52734375,0,2.52685546875,0.9208984375t1.65087890625,2.39208984375t0.9658203125,3.29052734375t0.48291015625,3.638671875t0.23583984375,3.44775390625t0.2021484375,2.70654296875q-0.4267578125,0.583984375-1.2578125,0.583984375l-0.0673828125,0q-0.359375,0-0.7861328125-0.08984375t-0.5615234375-0.44921875l0.044921875,0.044921875q-0.314453125-0.6962890625-0.4267578125-2.01025390625t-0.1796875-2.8974609375t-0.23583984375-3.24560546875t-0.50537109375-3.009765625t-0.98828125-2.2236328125t-1.751953125-0.9208984375l-0.134765625,0q-1.3251953125,0-2.2236328125,0.80859375q-0.943359375,0.853515625-1.52734375,2.24609375t-0.8984375,3.099609375t-0.48291015625,3.29052734375t-0.25830078125,2.875t-0.224609375,1.89794921875q-0.134765625,0.5166015625-0.79736328125,0.68505859375t-1.13427734375,0.16845703125q-1.1005859375,0-1.796875-0.62890625q-0.5166015625-1.2353515625-0.6064453125-3.0771484375t-0.08984375-3.59375z M75.678359375,52.734375l0-0.6513671875q0-0.80859375,0.044921875-1.52734375q0.044921875-1.0107421875,0.044921875-1.662109375q0-0.359375,0.044921875-0.81982421875t0.224609375-0.72998046875q0.224609375-0.224609375,0.52783203125-0.46044921875t0.66259765625-0.23583984375q1.1455078125,0,1.796875,0.25830078125t0.6962890625,1.06689453125l0.08984375,0.6962890625q0.404296875-0.9658203125,1.078125-2.39208984375t1.56103515625-2.7177734375t1.9990234375-2.201171875t2.34716796875-0.90966796875q1.1455078125,0,1.88671875,1.078125t1.17919921875,2.75146484375t0.61767578125,3.728515625t0.2470703125,4.03173828125t0.08984375,3.60498046875t0.1572265625,2.45947265625q0.08984375,0.6962890625,0.30322265625,1.47119140625t0.21337890625,1.42626953125q0,0.1796875-0.25830078125,0.34814453125t-0.55029296875,0.28076171875t-0.59521484375,0.1796875t-0.43798828125,0.0673828125q-0.8759765625,0-1.24658203125-1.31396484375t-0.46044921875-3.29052734375t-0.08984375-4.27880859375t-0.1572265625-4.27880859375t-0.64013671875-3.29052734375t-1.53857421875-1.35888671875q-0.9658203125,0-1.9990234375,1.24658203125t-1.7744140625,3.31298828125q-0.71875,2.06640625-0.98828125,4.6943359375q-0.08984375,0.8310546875-0.08984375,1.662109375q0,1.8193359375,0.3818359375,3.638671875q0.044921875,0.314453125-0.25830078125,0.4716796875t-0.75244140625,0.2470703125t-0.90966796875,0.1123046875t-0.70751953125,0.0224609375q-0.8759765625,0-1.40380859375-0.61767578125t-0.81982421875-1.58349609375t-0.39306640625-2.16748046875t-0.12353515625-2.36962890625z M96.087939453125,53.54296875q0-1.572265625,0.34814453125-3.7060546875t1.17919921875-4.04296875t2.18994140625-3.24560546875t3.42529296875-1.33642578125q1.931640625,0,2.8974609375,1.11181640625t0.9658203125,2.99853515625q0,1.2353515625-0.46044921875,2.70654296875t-1.31396484375,2.78515625t-2.021484375,2.18994140625t-2.60546875,0.8759765625l-0.583984375-0.044921875q0,0.6064453125,0.1796875,1.62841796875t0.52783203125,2.03271484375t0.8984375,1.7744140625t1.33642578125,0.763671875q1.1455078125,0,2.201171875-0.9208984375t1.9990234375-2.0439453125t1.751953125-2.0439453125t1.482421875-0.9208984375q0.359375,0,0.7412109375,0.1123046875t0.4267578125,0.62890625q0,0.314453125-0.16845703125,0.5166015625t-0.30322265625,0.44921875q-0.6962890625,1.1904296875-1.51611328125,2.2685546875t-1.85302734375,1.9541015625t-2.25732421875,1.38134765625t-2.70654296875,0.50537109375q-1.931640625,0-3.2119140625-0.68505859375t-2.06640625-1.841796875t-1.13427734375-2.6728515625t-0.34814453125-3.17822265625z M100.10844726563,51.8359375l0.62890625,0.5615234375q0.44921875,0.404296875,0.8984375,0.1796875t0.80859375-0.81982421875t0.66259765625-1.47119140625t0.5390625-1.796875t0.34814453125-1.796875t0.1123046875-1.4599609375l0-0.763671875t-0.0673828125-0.80859375t-0.23583984375-0.64013671875t-0.52783203125-0.32568359375q-0.1123046875-0.0224609375-0.2021484375-0.0224609375q-0.763671875,0-1.302734375,0.9658203125q-0.583984375,1.078125-0.943359375,2.61669921875t-0.5166015625,3.15576171875t-0.2021484375,2.42578125z M114.85787109375,46.8271484375q0-0.9208984375,0.5390625-1.58349609375t1.31396484375-1.078125t1.69580078125-0.61767578125t1.70703125-0.2021484375q0.6064453125,0,1.6171875,0.1796875t1.9765625,0.5390625t1.67333984375,0.943359375t0.70751953125,1.3701171875q0,0.359375-0.26953125,0.64013671875t-0.5615234375,0.28076171875q-0.6064453125,0-1.1005859375-0.39306640625t-1.02197265625-0.8310546875t-1.15673828125-0.8310546875t-1.4150390625-0.39306640625t-1.42626953125,0.50537109375t-0.64013671875,1.33642578125q0,1.3701171875,0.9658203125,2.68408203125t2.12255859375,2.7626953125t2.12255859375,3.04345703125t0.9658203125,3.5263671875q0,0.8310546875-0.34814453125,1.40380859375t-0.9208984375,0.93212890625t-1.29150390625,0.55029296875t-1.392578125,0.19091796875q-0.7412109375,0-1.7294921875-0.34814453125t-1.8642578125-0.9208984375t-1.47119140625-1.33642578125t-0.59521484375-1.5947265625q0-0.404296875,0.57275390625-0.5166015625t0.84228515625-0.1123046875q0.134765625,0,0.41552734375,0.08984375t0.55029296875,0.2021484375t0.48291015625,0.2470703125t0.16845703125,0.2919921875q0.224609375,0.26953125,0.68505859375,0.79736328125t0.9208984375,0.853515625t0.80859375,0.23583984375t0.34814453125-1.0107421875q0-1.751953125-0.943359375-3.22314453125t-2.05517578125-2.875t-2.05517578125-2.78515625t-0.943359375-2.95361328125z M130.68541992188,55.0703125l0-2.111328125q0-1.1455078125,0.05615234375-3.24560546875t0.14599609375-4.6044921875t0.2470703125-5.22216796875t0.359375-5.13232421875t0.48291015625-4.32373046875t0.64013671875-2.830078125q0.224609375-0.5166015625,0.7412109375-0.6513671875t1.0107421875-0.134765625q0.7861328125,0,1.38134765625,0.34814453125t0.59521484375,1.26904296875l-0.404296875,0.44921875q-0.7861328125,5.1884765625-1.0107421875,10.421875t-0.314453125,10.466796875q0.5615234375-0.8759765625,1.26904296875-1.71826171875t1.572265625-1.49365234375t1.8642578125-1.04443359375t2.18994140625-0.39306640625q1.52734375,0,2.52685546875,0.9208984375t1.65087890625,2.39208984375t0.9658203125,3.29052734375t0.48291015625,3.638671875t0.23583984375,3.44775390625t0.2021484375,2.70654296875q-0.4267578125,0.583984375-1.2578125,0.583984375l-0.0673828125,0q-0.359375,0-0.7861328125-0.08984375t-0.5615234375-0.44921875l0.044921875,0.044921875q-0.314453125-0.6962890625-0.4267578125-2.01025390625t-0.1796875-2.8974609375t-0.23583984375-3.24560546875t-0.50537109375-3.009765625t-0.98828125-2.2236328125t-1.751953125-0.9208984375l-0.134765625,0q-1.3251953125,0-2.2236328125,0.80859375q-0.943359375,0.853515625-1.52734375,2.24609375t-0.8984375,3.099609375t-0.48291015625,3.29052734375t-0.25830078125,2.875t-0.224609375,1.89794921875q-0.134765625,0.5166015625-0.79736328125,0.68505859375t-1.13427734375,0.16845703125q-1.1005859375,0-1.796875-0.62890625q-0.5166015625-1.2353515625-0.6064453125-3.0771484375t-0.08984375-3.59375z"/><path fill="#" d=""/></svg>
