<?xml version="1.0"?>
<svg version="1.1" xmlns="http://www.w3.org/2000/svg" width="170px" height="100px" style=""><path fill="#10b981" d="M24.125,56.59375l0.1875-0.328125q2.34375-1.375,4.640625-2.78125t4.703125-2.6875l-0.0625,0.03125q0.359375-0.25,0.7265625-0.3984375t0.7734375-0.1484375q0.25,0,0.609375,0.0703125t0.421875,0.4140625q-0.0625,0.15625-0.671875,0.59375t-1.5078125,1.046875t-1.96875,1.2578125t-2.046875,1.2578125t-1.734375,1.078125t-1.0390625,0.625q0.28125,0.21875,1.0390625,0.78125t1.6875,1.28125t1.9375,1.5234375t1.8671875,1.5078125t1.4375,1.2421875t0.671875,0.7421875q-0.0625,0.453125-0.5859375,0.5625t-0.8828125,0.109375t-1.125-0.46875t-1.7421875-1.1875t-2.046875-1.6015625t-2.078125-1.7109375t-1.8046875-1.5t-1.21875-1z M38.30734375,64.6875q0-0.09375,0.2734375-0.4453125t0.625-0.765625t0.671875-0.765625t0.4140625-0.4921875q1.65625-2.015625,3.1953125-4.3515625t3.046875-4.765625t3.0390625-4.765625t3.234375-4.3515625q0.484375-0.546875,0.9609375-0.9921875t1.2734375-0.4453125q0.125,0,0.3515625,0.015625t0.453125,0.078125t0.3828125,0.171875t0.15625,0.3125q0,0.09375-0.2578125,0.4453125t-0.5625,0.765625t-0.5859375,0.78125t-0.390625,0.4921875q-0.390625,0.515625-1.0859375,1.6015625t-1.609375,2.546875t-1.984375,3.15625t-2.1796875,3.390625t-2.1796875,3.28125t-2,2.828125t-1.6328125,2.046875t-1.078125,0.8984375q-0.390625,0.09375-0.875,0.09375q-0.15625,0-0.4453125-0.03125t-0.5546875-0.109375t-0.4609375-0.2265625t-0.1953125-0.3984375z M57.9896875,54.359375q0-0.125,0.1484375-0.2265625t0.3359375-0.1484375t0.3828125-0.0625t0.2890625-0.015625q0.703125,0,1.203125,0.625t0.8671875,1.6015625t0.625,2.15625t0.4921875,2.3515625t0.4609375,2.1484375t0.5078125,1.5078125q0.484375-0.953125,0.8828125-2.296875t0.734375-2.78125t0.59375-2.8359375t0.4140625-2.4453125q0.0625-0.28125,0.390625-0.3515625t0.546875-0.0703125q0.359375,0,0.625,0.1015625t0.265625,0.4453125q0,0.578125-0.140625,1.5703125t-0.3828125,2.2265625t-0.5625,2.53125t-0.6875,2.4609375t-0.765625,2.0625t-0.7890625,1.2734375q-0.1875,0.21875-0.5859375,0.3046875t-0.6640625,0.0859375q-0.921875,0-1.53125-0.484375l0,0.03125q-0.953125-0.890625-1.40625-2.171875t-0.65625-2.671875t-0.3671875-2.765625t-0.5546875-2.5q-0.0625-0.125-0.15625-0.3671875t-0.21875-0.484375t-0.2109375-0.4609375t-0.0859375-0.34375z M70.31265625,59.796875q0-1.4375,0.3359375-2.8203125t0.5703125-2.7578125q0.0625-0.359375,0.4921875-0.4453125t0.7265625-0.0859375q0.515625,0,0.828125,0.15625q0.125,0.0625,0.234375,0.140625t0.109375,0.203125q0,1.34375-0.3203125,2.625t-0.3203125,2.71875q0,0.484375,0.0703125,0.9140625t0.1328125,0.8515625l0.09375,0.453125q0,0.125,0.015625,0.21875t0.046875,0.21875q0,0.28125-0.3984375,0.3828125t-0.6953125,0.1015625q-0.453125,0-0.8359375-0.1796875t-0.6015625-0.6171875l-0.21875-0.453125q-0.1875-0.359375-0.1875-0.8046875t-0.078125-0.8203125z M71.31265625,50.390625l0-0.296875q0-0.734375,0.3671875-1.3125t1.1015625-0.578125q0.09375,0,0.1796875,0.015625t0.1796875,0.015625q0.1875,0.03125,0.4921875,0.1484375t0.3046875,0.3671875l0,0.03125q-0.0625,0.125-0.078125,0.2578125t-0.078125,0.2265625l0.03125-0.03125q-0.1875,0.484375-0.3046875,0.78125t-0.2578125,0.4765625t-0.3515625,0.2578125t-0.6015625,0.078125q-0.0625,0-0.21875-0.015625t-0.3359375-0.0625t-0.3046875-0.125t-0.125-0.234375z M77.135625,59.625q0-0.859375,0.1640625-1.8359375t0.5625-1.7890625t1.1015625-1.34375t1.796875-0.53125q0.734375,0,1.421875,0.2421875t1.296875,0.6640625q0.1875-0.3125,0.59375-0.3828125t0.71875-0.0703125q0.125,0,0.3515625,0.015625t0.4453125,0.09375t0.3828125,0.1875t0.1953125,0.3125q0.125,1.09375,0.171875,2.1796875t0.140625,2.1640625q0.15625,2.015625,0.484375,3.984375t0.328125,3.984375q0,0.953125-0.0859375,2.0625t-0.453125,2.0546875t-1.0703125,1.5703125t-1.953125,0.625q-1.125,0-1.7265625-0.3984375t-1.0859375-1.3359375q0.03125-0.3125,0.3984375-0.4140625t0.6328125-0.1015625q0.25,0,0.5078125,0.046875t0.4140625,0.15625l0.390625,0.25q0.578125-1.1875,0.703125-2.59375t0.125-2.71875q0-1.09375-0.109375-2.1640625t-0.21875-2.1484375q-1.09375,1.984375-3.328125,1.984375q-1.03125,0-1.6796875-0.4375t-1-1.109375t-0.484375-1.515625t-0.1328125-1.6875z M79.0575,59.765625q0,0.390625,0.03125,1.0078125t0.1640625,1.2109375t0.3828125,1.0234375t0.703125,0.4296875q0.859375,0,1.359375-0.671875t0.7890625-1.6015625t0.4609375-1.921875t0.4375-1.6328125q-0.03125-0.21875-0.03125-0.4296875l0-0.4296875q-0.359375-0.671875-1.046875-1.1640625t-1.421875-0.6640625q-0.09375-0.015625-0.171875-0.015625q-0.4375,0-0.71875,0.515625q-0.359375,0.625-0.5625,1.4921875t-0.2890625,1.7109375t-0.0859375,1.140625z M90.48984375,61.875l0-1.46875q0-0.796875,0.0390625-2.2578125t0.1015625-3.203125t0.171875-3.6328125t0.25-3.5703125t0.3359375-3.0078125t0.4453125-1.96875q0.15625-0.359375,0.515625-0.453125t0.703125-0.09375q0.546875,0,0.9609375,0.2421875t0.4140625,0.8828125l-0.28125,0.3125q-0.546875,3.609375-0.703125,7.25t-0.21875,7.28125q0.390625-0.609375,0.8828125-1.1953125t1.09375-1.0390625t1.296875-0.7265625t1.5234375-0.2734375q1.0625,0,1.7578125,0.640625t1.1484375,1.6640625t0.671875,2.2890625t0.3359375,2.53125t0.1640625,2.3984375t0.140625,1.8828125q-0.296875,0.40625-0.875,0.40625l-0.046875,0q-0.25,0-0.546875-0.0625t-0.390625-0.3125l0.03125,0.03125q-0.21875-0.484375-0.296875-1.3984375t-0.125-2.015625t-0.1640625-2.2578125t-0.3515625-2.09375t-0.6875-1.546875t-1.21875-0.640625l-0.09375,0q-0.921875,0-1.546875,0.5625q-0.65625,0.59375-1.0625,1.5625t-0.625,2.15625t-0.3359375,2.2890625t-0.1796875,2t-0.15625,1.3203125q-0.09375,0.359375-0.5546875,0.4765625t-0.7890625,0.1171875q-0.765625,0-1.25-0.4375q-0.359375-0.859375-0.421875-2.140625t-0.0625-2.5z M105.4534375,60.25l0-0.453125q0-0.5625,0.03125-1.0625q0.03125-0.703125,0.03125-1.15625q0-0.25,0.03125-0.5703125t0.15625-0.5078125q0.15625-0.15625,0.3671875-0.3203125t0.4609375-0.1640625q0.796875,0,1.25,0.1796875t0.484375,0.7421875l0.0625,0.484375q0.28125-0.671875,0.75-1.6640625t1.0859375-1.890625t1.390625-1.53125t1.6328125-0.6328125q0.796875,0,1.3125,0.75t0.8203125,1.9140625t0.4296875,2.59375t0.171875,2.8046875t0.0625,2.5078125t0.109375,1.7109375q0.0625,0.484375,0.2109375,1.0234375t0.1484375,0.9921875q0,0.125-0.1796875,0.2421875t-0.3828125,0.1953125t-0.4140625,0.125t-0.3046875,0.046875q-0.609375,0-0.8671875-0.9140625t-0.3203125-2.2890625t-0.0625-2.9765625t-0.109375-2.9765625t-0.4453125-2.2890625t-1.0703125-0.9453125q-0.671875,0-1.390625,0.8671875t-1.234375,2.3046875q-0.5,1.4375-0.6875,3.265625q-0.0625,0.578125-0.0625,1.15625q0,1.265625,0.265625,2.53125q0.03125,0.21875-0.1796875,0.328125t-0.5234375,0.171875t-0.6328125,0.078125t-0.4921875,0.015625q-0.609375,0-0.9765625-0.4296875t-0.5703125-1.1015625t-0.2734375-1.5078125t-0.0859375-1.6484375z M119.65140625,60.8125q0-1.09375,0.2421875-2.578125t0.8203125-2.8125t1.5234375-2.2578125t2.3828125-0.9296875q1.34375,0,2.015625,0.7734375t0.671875,2.0859375q0,0.859375-0.3203125,1.8828125t-0.9140625,1.9375t-1.40625,1.5234375t-1.8125,0.609375l-0.40625-0.03125q0,0.421875,0.125,1.1328125t0.3671875,1.4140625t0.625,1.234375t0.9296875,0.53125q0.796875,0,1.53125-0.640625t1.390625-1.421875t1.21875-1.421875t1.03125-0.640625q0.25,0,0.515625,0.078125t0.296875,0.4375q0,0.21875-0.1171875,0.359375t-0.2109375,0.3125q-0.484375,0.828125-1.0546875,1.578125t-1.2890625,1.359375t-1.5703125,0.9609375t-1.8828125,0.3515625q-1.34375,0-2.234375-0.4765625t-1.4375-1.28125t-0.7890625-1.859375t-0.2421875-2.2109375z M122.44828125,59.625l0.4375,0.390625q0.3125,0.28125,0.625,0.125t0.5625-0.5703125t0.4609375-1.0234375t0.375-1.25t0.2421875-1.25t0.078125-1.015625l0-0.53125t-0.046875-0.5625t-0.1640625-0.4453125t-0.3671875-0.2265625q-0.078125-0.015625-0.140625-0.015625q-0.53125,0-0.90625,0.671875q-0.40625,0.75-0.65625,1.8203125t-0.359375,2.1953125t-0.140625,1.6875z M132.70875,56.140625q0-0.640625,0.375-1.1015625t0.9140625-0.75t1.1796875-0.4296875t1.1875-0.140625q0.421875,0,1.125,0.125t1.375,0.375t1.1640625,0.65625t0.4921875,0.953125q0,0.25-0.1875,0.4453125t-0.390625,0.1953125q-0.421875,0-0.765625-0.2734375t-0.7109375-0.578125t-0.8046875-0.578125t-0.984375-0.2734375t-0.9921875,0.3515625t-0.4453125,0.9296875q0,0.953125,0.671875,1.8671875t1.4765625,1.921875t1.4765625,2.1171875t0.671875,2.453125q0,0.578125-0.2421875,0.9765625t-0.640625,0.6484375t-0.8984375,0.3828125t-0.96875,0.1328125q-0.515625,0-1.203125-0.2421875t-1.296875-0.640625t-1.0234375-0.9296875t-0.4140625-1.109375q0-0.28125,0.3984375-0.359375t0.5859375-0.078125q0.09375,0,0.2890625,0.0625t0.3828125,0.140625t0.3359375,0.171875t0.1171875,0.203125q0.15625,0.1875,0.4765625,0.5546875t0.640625,0.59375t0.5625,0.1640625t0.2421875-0.703125q0-1.21875-0.65625-2.2421875t-1.4296875-2t-1.4296875-1.9375t-0.65625-2.0546875z M143.71921875,61.875l0-1.46875q0-0.796875,0.0390625-2.2578125t0.1015625-3.203125t0.171875-3.6328125t0.25-3.5703125t0.3359375-3.0078125t0.4453125-1.96875q0.15625-0.359375,0.515625-0.453125t0.703125-0.09375q0.546875,0,0.9609375,0.2421875t0.4140625,0.8828125l-0.28125,0.3125q-0.546875,3.609375-0.703125,7.25t-0.21875,7.28125q0.390625-0.609375,0.8828125-1.1953125t1.09375-1.0390625t1.296875-0.7265625t1.5234375-0.2734375q1.0625,0,1.7578125,0.640625t1.1484375,1.6640625t0.671875,2.2890625t0.3359375,2.53125t0.1640625,2.3984375t0.140625,1.8828125q-0.296875,0.40625-0.875,0.40625l-0.046875,0q-0.25,0-0.546875-0.0625t-0.390625-0.3125l0.03125,0.03125q-0.21875-0.484375-0.296875-1.3984375t-0.125-2.015625t-0.1640625-2.2578125t-0.3515625-2.09375t-0.6875-1.546875t-1.21875-0.640625l-0.09375,0q-0.921875,0-1.546875,0.5625q-0.65625,0.59375-1.0625,1.5625t-0.625,2.15625t-0.3359375,2.2890625t-0.1796875,2t-0.15625,1.3203125q-0.09375,0.359375-0.5546875,0.4765625t-0.7890625,0.1171875q-0.765625,0-1.25-0.4375q-0.359375-0.859375-0.421875-2.140625t-0.0625-2.5z M158.8078125,50.765625q0.0625-0.359375,0.4140625-0.421875t0.6015625-0.0625q0.421875,0,0.7890625,0.1484375t0.7109375,0.3984375l-0.0625-0.03125q2.40625,1.28125,4.7109375,2.6875t4.6328125,2.78125l0.203125,0.328125l-0.203125,0.3125q-0.421875,0.3125-1.21875,0.9921875t-1.8046875,1.5078125t-2.078125,1.7109375t-2.046875,1.6015625t-1.7421875,1.1875t-1.125,0.46875t-0.8828125-0.1171875t-0.5859375-0.5546875q0.0625-0.1875,0.65625-0.734375t1.4609375-1.25t1.875-1.5078125t1.9296875-1.5234375t1.6640625-1.28125t1.0546875-0.78125q-0.28125-0.15625-1.0390625-0.625t-1.734375-1.078125t-2.046875-1.2578125t-1.9609375-1.2578125t-1.5-1.046875t-0.671875-0.59375z"/><path fill="#" d=""/></svg>
